<svg xmlns="http://www.w3.org/2000/svg" width="59.187" height="45.91" viewBox="0 0 59.187 45.91"><defs><style>.a{fill:#231f20;}.b{fill:#ff5f00;}.c{fill:#eb001b;}.d{fill:#f79e1b;}</style></defs><g transform="translate(3.011 38.978)"><path class="a" d="M2725.718-743.411a1.458,1.458,0,0,1,1.474-1.555,1.457,1.457,0,0,1,1.464,1.555,1.456,1.456,0,0,1-1.464,1.555,1.458,1.458,0,0,1-1.474-1.555m3.934,0v-2.429H2728.6v.59a1.844,1.844,0,0,0-1.535-.712,2.435,2.435,0,0,0-2.43,2.551,2.434,2.434,0,0,0,2.43,2.551,1.844,1.844,0,0,0,1.535-.712v.59h1.056Zm35.693,0a1.458,1.458,0,0,1,1.474-1.555,1.457,1.457,0,0,1,1.464,1.555,1.456,1.456,0,0,1-1.464,1.555,1.458,1.458,0,0,1-1.474-1.555m3.933,0v-4.379h-1.057v2.54a1.84,1.84,0,0,0-1.534-.712,2.434,2.434,0,0,0-2.429,2.551,2.434,2.434,0,0,0,2.429,2.551,1.84,1.84,0,0,0,1.534-.712v.59h1.057Zm-26.516-1.6a1.206,1.206,0,0,1,1.229,1.179h-2.52a1.251,1.251,0,0,1,1.291-1.179m.021-.946a2.373,2.373,0,0,0-2.42,2.551,2.4,2.4,0,0,0,2.49,2.551,2.952,2.952,0,0,0,1.991-.681l-.517-.783a2.324,2.324,0,0,1-1.413.508,1.35,1.35,0,0,1-1.454-1.19h3.608c.01-.132.021-.264.021-.406a2.33,2.33,0,0,0-2.307-2.551m12.754,2.551a1.458,1.458,0,0,1,1.473-1.555,1.457,1.457,0,0,1,1.464,1.555,1.457,1.457,0,0,1-1.464,1.555,1.458,1.458,0,0,1-1.473-1.555m3.932,0v-2.429h-1.056v.59a1.844,1.844,0,0,0-1.535-.712,2.435,2.435,0,0,0-2.43,2.551,2.434,2.434,0,0,0,2.43,2.551,1.844,1.844,0,0,0,1.535-.712v.59h1.056Zm-9.9,0a2.454,2.454,0,0,0,2.592,2.551,2.544,2.544,0,0,0,1.747-.579l-.508-.854a2.131,2.131,0,0,1-1.27.438,1.451,1.451,0,0,1-1.464-1.555,1.452,1.452,0,0,1,1.464-1.555,2.133,2.133,0,0,1,1.27.438l.508-.854a2.545,2.545,0,0,0-1.747-.579,2.454,2.454,0,0,0-2.592,2.551m13.618-2.551a1.432,1.432,0,0,0-1.281.712v-.59h-1.047v4.858h1.057v-2.723c0-.8.345-1.25,1.037-1.25a1.71,1.71,0,0,1,.66.122l.326-1a2.251,2.251,0,0,0-.753-.133m-28.314.508a3.634,3.634,0,0,0-1.981-.508c-1.231,0-2.023.59-2.023,1.555,0,.792.589,1.281,1.676,1.433l.5.071c.578.081.852.234.852.508,0,.376-.386.59-1.107.59a2.585,2.585,0,0,1-1.616-.508l-.5.822a3.506,3.506,0,0,0,2.1.631c1.4,0,2.217-.661,2.217-1.586,0-.854-.64-1.3-1.7-1.453l-.5-.072c-.458-.061-.824-.152-.824-.477,0-.356.345-.569.925-.569a3.139,3.139,0,0,1,1.515.416Zm13.628-.508a1.43,1.43,0,0,0-1.28.712v-.59h-1.047v4.858h1.056v-2.723c0-.8.345-1.25,1.036-1.25a1.71,1.71,0,0,1,.661.122l.326-1a2.254,2.254,0,0,0-.753-.133m-9.014.122h-1.728v-1.474h-1.067v1.474h-.986v.965h.986v2.216c0,1.127.437,1.8,1.686,1.8a2.481,2.481,0,0,0,1.322-.376l-.305-.905a1.954,1.954,0,0,1-.935.275c-.528,0-.7-.326-.7-.813v-2.2h1.728Zm-15.793,4.858v-3.049a1.808,1.808,0,0,0-1.911-1.931,1.881,1.881,0,0,0-1.708.864,1.782,1.782,0,0,0-1.6-.864,1.607,1.607,0,0,0-1.423.721v-.6h-1.057v4.858h1.067v-2.693a1.137,1.137,0,0,1,1.189-1.292c.7,0,1.057.457,1.057,1.281v2.7h1.067v-2.693a1.147,1.147,0,0,1,1.189-1.292c.721,0,1.067.457,1.067,1.281v2.7Z" transform="translate(-2715.992 747.79)"/></g><path class="b" d="M2784.116-817.39h-16.008v-28.769h16.008Z" transform="translate(-2746.519 850.073)"/><g transform="translate(0 0)"><path class="c" d="M2730.156-838.843a18.266,18.266,0,0,1,6.988-14.385,18.217,18.217,0,0,0-11.307-3.912,18.3,18.3,0,0,0-18.294,18.3,18.3,18.3,0,0,0,18.294,18.3,18.214,18.214,0,0,0,11.307-3.912,18.265,18.265,0,0,1-6.988-14.384" transform="translate(-2707.543 857.14)"/></g><g transform="translate(29.584 0)"><path class="d" d="M2820.141-838.843a18.3,18.3,0,0,1-18.294,18.3,18.218,18.218,0,0,1-11.308-3.912,18.262,18.262,0,0,0,6.988-14.384,18.263,18.263,0,0,0-6.988-14.385,18.221,18.221,0,0,1,11.308-3.912,18.3,18.3,0,0,1,18.294,18.3" transform="translate(-2790.539 857.14)"/></g></svg>