<svg xmlns="http://www.w3.org/2000/svg" width="85.486" height="22.785" viewBox="0 0 85.486 22.785"><defs><style>.a{fill:#002f86;}.b{fill:#009cde;}</style></defs><path class="a" d="M392.229,483.562h-3.2a.923.923,0,0,0-.765.405l-4.416,6.5-1.871-6.249a.926.926,0,0,0-.886-.66h-3.147a.554.554,0,0,0-.525.733l3.525,10.345-3.315,4.677a.555.555,0,0,0,.453.879h3.2a.925.925,0,0,0,.759-.4l10.643-15.363a.554.554,0,0,0-.455-.87m-21.4,6.2a3.55,3.55,0,0,1-3.594,3.041,2.468,2.468,0,0,1-2.636-3.1,3.561,3.561,0,0,1,3.568-3.065,2.684,2.684,0,0,1,2.122.867,2.74,2.74,0,0,1,.54,2.253m4.439-6.2h-3.181a.555.555,0,0,0-.548.468l-.139.89-.223-.321c-.69-1-2.227-1.337-3.762-1.337a7.323,7.323,0,0,0-7.107,6.406,6.013,6.013,0,0,0,1.185,4.893,4.978,4.978,0,0,0,4.01,1.619,6.093,6.093,0,0,0,4.408-1.822l-.142.886a.553.553,0,0,0,.461.633.56.56,0,0,0,.087.007h2.868a.924.924,0,0,0,.913-.781l1.721-10.9a.555.555,0,0,0-.464-.634.572.572,0,0,0-.084-.007m-19.109.078c-.363,2.386-2.187,2.386-3.95,2.386h-1l.7-4.456a.553.553,0,0,1,.547-.466h.46c1.2,0,2.333,0,2.919.683a2.219,2.219,0,0,1,.322,1.855m-.766-6.228h-6.651a.924.924,0,0,0-.913.781l-2.688,17.052a.554.554,0,0,0,.461.633.546.546,0,0,0,.086.007h3.175a.925.925,0,0,0,.913-.781l.726-4.6a.923.923,0,0,1,.912-.781h2.1c4.382,0,6.909-2.12,7.569-6.321a5.118,5.118,0,0,0-.848-4.292c-.945-1.111-2.622-1.7-4.847-1.7" transform="translate(-345.135 -477.41)"/><path class="b" d="M462.828,477.878l-2.734,17.364a.555.555,0,0,0,.548.641h2.745a.923.923,0,0,0,.912-.781l2.691-17.052a.553.553,0,0,0-.46-.633.569.569,0,0,0-.088-.007h-3.061a.551.551,0,0,0-.547.469m-8.192,11.881a3.551,3.551,0,0,1-3.594,3.041,2.466,2.466,0,0,1-2.636-3.1,3.562,3.562,0,0,1,3.568-3.065,2.684,2.684,0,0,1,2.122.868,2.744,2.744,0,0,1,.54,2.253m4.439-6.2H455.9a.555.555,0,0,0-.548.468l-.141.89-.222-.321c-.689-1-2.227-1.337-3.762-1.337a7.324,7.324,0,0,0-7.108,6.406,6.018,6.018,0,0,0,1.187,4.893,4.977,4.977,0,0,0,4.01,1.619,6.1,6.1,0,0,0,4.409-1.822l-.143.886a.553.553,0,0,0,.461.633.565.565,0,0,0,.087.007h2.868a.924.924,0,0,0,.913-.781l1.721-10.9a.555.555,0,0,0-.464-.634.511.511,0,0,0-.083-.007m-19.11.078c-.363,2.386-2.186,2.386-3.95,2.386h-1l.7-4.456a.555.555,0,0,1,.548-.467h.46c1.2,0,2.333,0,2.919.684a2.223,2.223,0,0,1,.322,1.855m-.766-6.228h-6.651a.925.925,0,0,0-.913.781l-2.689,17.052a.554.554,0,0,0,.461.633.548.548,0,0,0,.085.007h3.413a.646.646,0,0,0,.639-.545l.763-4.834a.923.923,0,0,1,.912-.781h2.1c4.38,0,6.908-2.12,7.569-6.321a5.119,5.119,0,0,0-.848-4.292c-.945-1.111-2.622-1.7-4.847-1.7" transform="translate(-381.511 -477.409)"/></svg>