<svg xmlns="http://www.w3.org/2000/svg" width="75.779" height="31.113" viewBox="0 0 75.779 31.113"><path d="M700.635,466.907a4.653,4.653,0,0,1-3.73,1.762,5.28,5.28,0,0,1,1.332-3.863,5.563,5.563,0,0,1,3.7-1.909,5.62,5.62,0,0,1-1.3,4.011m1.288,2.043c-2.058-.118-3.819,1.169-4.8,1.169s-2.487-1.11-4.115-1.081a6.08,6.08,0,0,0-5.166,3.138c-2.22,3.819-.577,9.473,1.569,12.582,1.051,1.539,2.309,3.227,3.967,3.168,1.569-.059,2.191-1.021,4.086-1.021s2.457,1.021,4.115.991c1.717-.029,2.8-1.539,3.849-3.079a13.511,13.511,0,0,0,1.717-3.538A5.577,5.577,0,0,1,703.8,476.2a5.694,5.694,0,0,1,2.709-4.766,5.868,5.868,0,0,0-4.589-2.487m11.886-4.292v23.077h3.582v-7.889h4.959a7.325,7.325,0,0,0,7.712-7.609,7.238,7.238,0,0,0-7.593-7.579Zm3.582,3.019h4.13c3.108,0,4.885,1.658,4.885,4.574s-1.777,4.589-4.9,4.589h-4.115Zm19.214,20.235a5.927,5.927,0,0,0,5.284-2.945h.074v2.768h3.316V476.248c0-3.331-2.665-5.477-6.765-5.477-3.8,0-6.617,2.176-6.72,5.166h3.227c.266-1.421,1.584-2.354,3.39-2.354,2.191,0,3.419,1.022,3.419,2.9v1.273l-4.47.267c-4.159.251-6.41,1.953-6.41,4.914C730.951,485.928,733.275,487.912,736.605,487.912Zm.962-2.738c-1.91,0-3.124-.918-3.124-2.324,0-1.451,1.169-2.295,3.4-2.428l3.981-.252v1.3C741.83,483.634,739.995,485.173,737.568,485.173Zm12.138,8.837c3.493,0,5.137-1.332,6.572-5.373l6.291-17.644h-3.641l-4.219,13.633h-.074l-4.219-13.633h-3.745l6.069,16.8-.326,1.021c-.548,1.732-1.436,2.4-3.02,2.4-.281,0-.829-.03-1.051-.059v2.768A9.825,9.825,0,0,0,749.705,494.01Z" transform="translate(-686.789 -462.896)"/></svg>