<svg xmlns="http://www.w3.org/2000/svg" width="58.754" height="18.973" viewBox="0 0 58.754 18.973"><defs><style>.a{fill:#15195a;}</style></defs><path class="a" d="M3154.17-552.5c-.033,2.643,2.356,4.118,4.156,4.995,1.849.9,2.47,1.477,2.462,2.281-.014,1.232-1.475,1.775-2.841,1.8a9.917,9.917,0,0,1-4.875-1.159l-.859,4.021a14.3,14.3,0,0,0,5.279.974c4.986,0,8.248-2.461,8.266-6.277.019-4.843-6.7-5.111-6.653-7.276.016-.656.642-1.357,2.015-1.535a8.934,8.934,0,0,1,4.68.82l.834-3.89a12.722,12.722,0,0,0-4.442-.815c-4.693,0-7.994,2.495-8.021,6.066m20.482-5.73a2.164,2.164,0,0,0-2.021,1.346l-7.122,17.006h4.982l.991-2.74h6.089l.576,2.74h4.392l-3.833-18.352h-4.054m.7,4.958,1.438,6.891h-3.938l2.5-6.891m-27.219-4.958-3.928,18.352h4.748l3.926-18.352h-4.746m-7.024,0-4.942,12.491-2-10.621a2.213,2.213,0,0,0-2.189-1.87H3123.9l-.113.533a19.765,19.765,0,0,1,4.684,1.561,2.008,2.008,0,0,1,1.127,1.612l3.786,14.646h5.018l7.691-18.352h-4.985" transform="translate(-3123.785 558.563)"/></svg>